<svg width="28" height="28" viewBox="0 0 28 28" fill="none" xmlns="http://www.w3.org/2000/svg">
<path d="M23.3151 18.5938C23.3151 18.3264 23.1814 18.1623 22.9141 18.1016C22.0998 17.9193 21.3828 17.5608 20.763 17.026C20.1432 16.4913 19.6571 15.8351 19.3047 15.0573C19.2196 14.8264 19.1771 14.6745 19.1771 14.6016C19.1771 14.4193 19.2956 14.2613 19.5326 14.1276C19.7695 13.9939 20.0308 13.8906 20.3164 13.8177C20.602 13.7448 20.8633 13.6202 21.1003 13.444C21.3372 13.2678 21.4557 13.046 21.4557 12.7786C21.4557 12.5477 21.3433 12.3563 21.1185 12.2044C20.8937 12.0525 20.6597 11.9766 20.4167 11.9766C20.2708 11.9766 20.0764 12.0252 19.8333 12.1224C19.5903 12.2196 19.4019 12.2682 19.2682 12.2682C19.2196 12.2682 19.1467 12.2561 19.0495 12.2318C19.1102 11.0773 19.1406 10.3845 19.1406 10.1536C19.1406 9.19358 19.0373 8.50087 18.8307 8.07552C18.3932 7.1276 17.7674 6.38932 16.9531 5.86068C16.1389 5.33203 15.2153 5.06771 14.1823 5.06771C11.7639 5.06771 10.0929 6.07031 9.16927 8.07552C8.96267 8.50087 8.85938 9.19358 8.85938 10.1536C8.85938 10.3845 8.88976 11.0773 8.95052 12.2318C8.90191 12.2561 8.81684 12.2682 8.69531 12.2682C8.54948 12.2682 8.35503 12.2227 8.11198 12.1315C7.86892 12.0404 7.68663 11.9948 7.5651 11.9948C7.3099 11.9948 7.07595 12.0677 6.86328 12.2135C6.65061 12.3594 6.54427 12.5538 6.54427 12.7969C6.54427 13.0521 6.66276 13.2678 6.89974 13.444C7.13672 13.6202 7.398 13.7448 7.68359 13.8177C7.96918 13.8906 8.23047 13.9939 8.46745 14.1276C8.70443 14.2613 8.82292 14.4193 8.82292 14.6016C8.82292 14.6745 8.78038 14.8264 8.69531 15.0573C7.91753 16.7344 6.71441 17.7491 5.08594 18.1016C4.81858 18.1623 4.6849 18.3264 4.6849 18.5938C4.6849 19.1528 5.51736 19.566 7.18229 19.8333C7.2066 19.8941 7.24306 20.0521 7.29167 20.3073C7.34028 20.5625 7.41016 20.7478 7.5013 20.8633C7.59245 20.9787 7.73524 21.0365 7.92969 21.0365C8.07552 21.0365 8.30338 21.0091 8.61328 20.9544C8.92318 20.8997 9.16319 20.8724 9.33333 20.8724C9.75868 20.8724 10.1658 20.9635 10.5547 21.1458C10.9436 21.3281 11.2717 21.5256 11.5391 21.7383C11.8064 21.951 12.1558 22.1484 12.5872 22.3307C13.0187 22.513 13.4835 22.6042 13.9818 22.6042C14.5043 22.6042 14.9844 22.513 15.4219 22.3307C15.8594 22.1484 16.2088 21.951 16.4701 21.7383C16.7313 21.5256 17.0564 21.3281 17.4453 21.1458C17.8342 20.9635 18.2413 20.8724 18.6667 20.8724C18.8368 20.8724 19.0768 20.8967 19.3867 20.9453C19.6966 20.9939 19.9306 21.0182 20.0885 21.0182C20.283 21.0182 20.4227 20.9575 20.5078 20.8359C20.5929 20.7144 20.6597 20.5321 20.7083 20.2891C20.7569 20.046 20.7934 19.8941 20.8177 19.8333C22.4826 19.566 23.3151 19.1528 23.3151 18.5938ZM28 14C28 16.5399 27.3741 18.8824 26.1224 21.0273C24.8707 23.1723 23.1723 24.8707 21.0273 26.1224C18.8824 27.3741 16.5399 28 14 28C11.4601 28 9.11762 27.3741 6.97266 26.1224C4.82769 24.8707 3.12934 23.1723 1.8776 21.0273C0.625868 18.8824 0 16.5399 0 14C0 11.4601 0.625868 9.11762 1.8776 6.97266C3.12934 4.82769 4.82769 3.12934 6.97266 1.8776C9.11762 0.625868 11.4601 0 14 0C16.5399 0 18.8824 0.625868 21.0273 1.8776C23.1723 3.12934 24.8707 4.82769 26.1224 6.97266C27.3741 9.11762 28 11.4601 28 14Z" fill="#73843D"/>
</svg>
