<svg width="34" height="28" viewBox="0 0 34 28" fill="none" xmlns="http://www.w3.org/2000/svg">
<path d="M12.3122 0C5.51225 0 0 4.6914 0 10.4757C0 13.6319 1.6575 16.4727 4.25283 18.3946C4.39685 18.4998 4.50377 18.6486 4.55804 18.8192C4.61231 18.9899 4.6111 19.1735 4.55458 19.3435L4.00208 21.4552C3.97517 21.555 3.93408 21.6563 3.93408 21.7591C3.93408 21.9916 4.11825 22.18 4.34492 22.18C4.42924 22.1763 4.51099 22.1497 4.5815 22.1029L7.27742 20.5135C7.42647 20.4172 7.59456 20.3548 7.76998 20.3307C7.9454 20.3065 8.12394 20.3212 8.29317 20.3736C9.59932 20.7548 10.9524 20.9484 12.3122 20.9486C12.7032 20.9486 13.0815 20.9101 13.4612 20.8773C12.2471 17.1989 13.6836 13.7831 16.1982 11.68C18.6108 9.66103 21.6977 8.85487 24.4899 9.05748C23.6739 3.94517 18.5456 0 12.3122 0ZM8.19542 5.42621C9.10492 5.42621 9.84158 6.181 9.84158 7.10986C9.84308 7.32909 9.80168 7.54647 9.71976 7.74959C9.63784 7.9527 9.517 8.13758 9.36414 8.29365C9.21128 8.44973 9.02939 8.57395 8.82886 8.65923C8.62833 8.74451 8.41308 8.78917 8.19542 8.79066C7.97763 8.78917 7.76227 8.74446 7.56165 8.6591C7.36102 8.57373 7.17907 8.44938 7.02619 8.29315C6.87331 8.13692 6.7525 7.95188 6.67066 7.7486C6.58883 7.54532 6.54757 7.32779 6.54925 7.10844C6.54925 6.17958 7.28592 5.42479 8.19542 5.42479V5.42621ZM16.4305 5.42621C17.34 5.42621 18.0767 6.181 18.0767 7.10986C18.0782 7.32909 18.0368 7.54647 17.9548 7.74959C17.8729 7.9527 17.7521 8.13758 17.5992 8.29365C17.4464 8.44973 17.2645 8.57395 17.0639 8.65923C16.8634 8.74451 16.6482 8.78917 16.4305 8.79066C16.2128 8.78917 15.9976 8.74451 15.7971 8.65923C15.5965 8.57395 15.4146 8.44973 15.2618 8.29365C15.1089 8.13758 14.9881 7.9527 14.9062 7.74959C14.8242 7.54647 14.7828 7.32909 14.7843 7.10986C14.7843 6.181 15.521 5.42621 16.4305 5.42621ZM23.9955 9.51692C21.4497 9.44272 18.6887 10.2475 16.5155 12.0652C14.0788 14.1027 12.7089 17.373 13.9938 20.9401C15.3283 24.4401 19.1873 26.9741 23.7462 26.9741C24.9163 26.9741 26.044 26.8029 27.0909 26.4947C27.2321 26.4513 27.381 26.4393 27.5273 26.4595C27.6735 26.4797 27.8137 26.5316 27.9381 26.6117L30.1821 27.9329C30.2416 27.9716 30.3098 27.9946 30.3804 28C30.5702 28 30.7204 27.8416 30.7204 27.6476C30.7204 27.562 30.6878 27.4764 30.6666 27.395L30.2033 25.6358C30.1828 25.5633 30.1718 25.4885 30.1707 25.4132C30.1702 25.3026 30.1958 25.1934 30.2453 25.0947C30.2948 24.996 30.3668 24.9105 30.4555 24.8453C32.6173 23.2458 34 20.8773 34 18.2519C34 13.6718 29.8477 9.92356 24.5707 9.56543V9.56258C24.3794 9.54831 24.1882 9.52405 23.9941 9.51977L23.9955 9.51692ZM20.4113 14.1883C21.1692 14.1883 21.7841 14.8161 21.7841 15.5895C21.7854 15.7724 21.7509 15.9537 21.6826 16.1232C21.6144 16.2926 21.5136 16.4469 21.3861 16.5771C21.2587 16.7074 21.107 16.811 20.9397 16.8822C20.7725 16.9534 20.5929 16.9907 20.4113 16.9921C20.2298 16.9907 20.0502 16.9534 19.883 16.8822C19.7157 16.811 19.564 16.7074 19.4365 16.5771C19.3091 16.4469 19.2083 16.2926 19.14 16.1232C19.0717 15.9537 19.0373 15.7724 19.0386 15.5895C19.0386 14.8161 19.6534 14.1883 20.4128 14.1883H20.4113ZM27.2737 14.1883C28.0316 14.1883 28.6464 14.8161 28.6464 15.5895C28.6477 15.7724 28.6133 15.9537 28.545 16.1232C28.4767 16.2926 28.3759 16.4469 28.2485 16.5771C28.121 16.7074 27.9693 16.811 27.802 16.8822C27.6348 16.9534 27.4552 16.9907 27.2737 16.9921C27.0921 16.9907 26.9125 16.9534 26.7453 16.8822C26.578 16.811 26.4263 16.7074 26.2989 16.5771C26.1714 16.4469 26.0706 16.2926 26.0024 16.1232C25.9341 15.9537 25.8996 15.7724 25.9009 15.5895C25.9009 14.8161 26.5158 14.1883 27.2737 14.1883Z" fill="#73843D"/>
</svg>
