<svg width="73" height="73" viewBox="0 0 73 73" fill="none" xmlns="http://www.w3.org/2000/svg">
<path d="M55.4793 52.9522C58.8037 49.1279 60.9194 44.4038 61.5588 39.3771C62.1983 34.3505 61.3328 29.2471 59.0719 24.7123C56.8109 20.1775 53.256 16.4151 48.8567 13.9006C44.4574 11.3862 39.4113 10.2328 34.3565 10.5863C29.3017 10.9398 24.4652 12.7842 20.4586 15.8864C16.4521 18.9886 13.4554 23.2093 11.8476 28.0146C10.2397 32.8199 10.0929 37.994 11.4258 42.8828C12.7586 47.7715 15.5112 52.1552 19.3354 55.4796L21.8566 52.5792C18.606 49.7535 16.2663 46.0274 15.1335 41.8719C14.0006 37.7165 14.1253 33.3185 15.492 29.234C16.8586 25.1495 19.4058 21.5619 22.8114 18.9251C26.2169 16.2882 30.328 14.7204 34.6246 14.4199C38.9211 14.1195 43.2103 15.0999 46.9498 17.2371C50.6892 19.3744 53.7108 22.5725 55.6326 26.4271C57.5545 30.2816 58.2901 34.6195 57.7465 38.8922C57.203 43.1648 55.4047 47.1803 52.579 50.4309L55.4793 52.9522Z" fill="#7DD63C"/>
<path d="M36.1467 10.5239C31.0795 10.5233 26.126 12.0253 21.9125 14.84C17.6989 17.6546 14.4147 21.6555 12.475 26.3367C10.5353 31.018 10.0273 36.1692 11.0153 41.1391C12.0033 46.1091 14.4428 50.6744 18.0254 54.2578C21.608 57.8413 26.1728 60.2819 31.1424 61.2711C36.1121 62.2602 41.2635 61.7535 45.9452 59.8149C50.6269 57.8763 54.6285 54.593 57.4442 50.3802C60.2599 46.1673 61.7631 41.2141 61.7637 36.147L57.9207 36.1465C57.9201 40.4536 56.6424 44.6638 54.2491 48.2447C51.8558 51.8257 48.4544 54.6165 44.4749 56.2642C40.4955 57.912 36.1168 58.3428 31.8926 57.502C27.6684 56.6612 23.7883 54.5867 20.7431 51.5408C17.6979 48.4948 15.6243 44.6143 14.7846 40.3899C13.9448 36.1654 14.3766 31.7869 16.0253 27.8078C17.674 23.8288 20.4656 20.428 24.0471 18.0356C27.6286 15.6431 31.8391 14.3664 36.1462 14.3669L36.1467 10.5239Z" fill="#D9D9D9"/>
<circle cx="35.9577" cy="36.7672" r="16.0094" fill="url(#paint0_linear_692_240006)" stroke="url(#paint1_linear_692_240006)" stroke-width="0.5"/>
<g filter="url(#filter0_d_692_240006)">
<path d="M45.1717 25.6512L44.8969 25.5655C38.9605 23.7144 32.5967 23.7449 26.6783 25.653C26.3276 25.766 26.0898 26.0925 26.0898 26.461V41.0015C26.0898 41.673 26.4269 42.2998 26.9871 42.67L34.6892 47.7603C35.3487 48.1962 36.203 48.2027 36.8691 47.7769L44.8631 42.6669C45.438 42.2994 45.7859 41.6641 45.7859 40.9818V26.486C45.7859 26.1033 45.5371 25.7651 45.1717 25.6512Z" fill="#F7F7F7"/>
<path d="M45.1717 25.6512L44.8969 25.5655C38.9605 23.7144 32.5967 23.7449 26.6783 25.653C26.3276 25.766 26.0898 26.0925 26.0898 26.461V41.0015C26.0898 41.673 26.4269 42.2998 26.9871 42.67L34.6892 47.7603C35.3487 48.1962 36.203 48.2027 36.8691 47.7769L44.8631 42.6669C45.438 42.2994 45.7859 41.6641 45.7859 40.9818V26.486C45.7859 26.1033 45.5371 25.7651 45.1717 25.6512Z" stroke="#626262" stroke-width="3"/>
</g>
<path d="M47.3496 23.1473L47.008 23.0455C39.6708 20.8586 31.8501 20.8947 24.5335 23.1495C24.0759 23.2905 23.7637 23.7134 23.7637 24.1923V40.9491C23.7637 41.9783 24.2913 42.9357 25.1614 43.4854L34.1791 49.1823C35.1441 49.7919 36.3715 49.8011 37.3456 49.2059L46.717 43.4797C47.6088 42.9348 48.1528 41.9649 48.1528 40.9198V24.2249C48.1528 23.7276 47.8261 23.2894 47.3496 23.1473Z" fill="#9A9A9A"/>
<mask id="mask0_692_240006" style="mask-type:alpha" maskUnits="userSpaceOnUse" x="24" y="22" width="24" height="27">
<path d="M46.3032 24.0914L45.9937 23.9978C39.3344 21.9846 32.224 22.0179 25.5839 24.0934C25.1755 24.221 24.8975 24.5992 24.8975 25.027V40.3456C24.8975 41.368 25.4181 42.3199 26.2789 42.8715L34.1822 47.9357C35.1549 48.559 36.3991 48.5683 37.3811 47.9597L45.5998 42.8661C46.4824 42.3191 47.0194 41.3546 47.0194 40.3162V25.0561C47.0194 24.6118 46.7285 24.2199 46.3032 24.0914Z" fill="#D9D9D9"/>
</mask>
<g mask="url(#mask0_692_240006)">
<rect x="35.9629" y="20.9062" width="14.2213" height="14.2213" fill="#F7F7F7"/>
<rect x="21.7412" y="35.127" width="14.2213" height="14.2213" fill="#F7F7F7"/>
<rect x="35.9629" y="35.127" width="14.2213" height="14.2213" fill="#CACACA"/>
<rect x="21.7412" y="20.9062" width="14.2213" height="14.2213" fill="#CACACA"/>
<path d="M34.3311 29.0332H36.1602M36.1602 29.0332V40.8213M36.1602 29.0332H37.9894M36.1602 40.8213H34.3311M36.1602 40.8213H37.9894" stroke="#454545" stroke-width="1.5" stroke-linecap="round"/>
</g>
<defs>
<filter id="filter0_d_692_240006" x="23.3898" y="22.6992" width="25.0963" height="30.0926" filterUnits="userSpaceOnUse" color-interpolation-filters="sRGB">
<feFlood flood-opacity="0" result="BackgroundImageFix"/>
<feColorMatrix in="SourceAlpha" type="matrix" values="0 0 0 0 0 0 0 0 0 0 0 0 0 0 0 0 0 0 127 0" result="hardAlpha"/>
<feOffset dy="2"/>
<feGaussianBlur stdDeviation="0.6"/>
<feComposite in2="hardAlpha" operator="out"/>
<feColorMatrix type="matrix" values="0 0 0 0 0 0 0 0 0 0 0 0 0 0 0 0 0 0 0.25 0"/>
<feBlend mode="normal" in2="BackgroundImageFix" result="effect1_dropShadow_692_240006"/>
<feBlend mode="normal" in="SourceGraphic" in2="effect1_dropShadow_692_240006" result="shape"/>
</filter>
<linearGradient id="paint0_linear_692_240006" x1="24.4699" y1="20.5078" x2="47.4454" y2="53.0266" gradientUnits="userSpaceOnUse">
<stop stop-color="#AFAFAF"/>
<stop offset="1" stop-color="#5B5B5B"/>
</linearGradient>
<linearGradient id="paint1_linear_692_240006" x1="23.1664" y1="20.5078" x2="48.7489" y2="53.0266" gradientUnits="userSpaceOnUse">
<stop stop-color="#D5D5D5"/>
<stop offset="1" stop-color="#848484"/>
</linearGradient>
</defs>
</svg>
