<svg width="60" height="67" viewBox="0 0 60 67" fill="none" xmlns="http://www.w3.org/2000/svg">
<path fill-rule="evenodd" clip-rule="evenodd" d="M0 17.118C0 12.578 1.8035 8.22398 5.01374 5.01374C8.22398 1.8035 12.578 0 17.118 0H53.1558C56.6371 0 59.4624 2.82537 59.4624 6.30662V60.3634C59.4624 62.036 58.798 63.6401 57.6153 64.8228C56.4325 66.0055 54.8284 66.67 53.1558 66.67H13.5142C9.93 66.67 6.49262 65.2462 3.95821 62.7118C1.42381 60.1774 0 56.74 0 53.1558V17.118ZM54.0568 6.30662V39.6416H13.5142C10.4726 39.6416 7.66525 40.6471 5.40568 42.3445V17.118C5.40568 14.0117 6.63965 11.0326 8.83613 8.83613C11.0326 6.63965 14.0117 5.40568 17.118 5.40568H28.6789C27.7291 12.5522 27.8153 19.7984 28.9348 26.9203L29.1618 28.351C29.2408 28.8526 29.4596 29.3219 29.793 29.705C30.1264 30.0881 30.561 30.3694 31.047 30.5169C31.533 30.6643 32.0507 30.6719 32.5408 30.5387C33.0308 30.4054 33.4735 30.1368 33.8179 29.7636L38.7407 24.43L43.6634 29.7636C44.0079 30.1368 44.4505 30.4054 44.9406 30.5387C45.4307 30.6719 45.9484 30.6643 46.4343 30.5169C46.9203 30.3694 47.3549 30.0881 47.6883 29.705C48.0218 29.3219 48.2405 28.8526 48.3195 28.351L48.5466 26.9203C49.666 19.7984 49.7522 12.5522 48.8024 5.40568H53.1558C53.3948 5.40568 53.6239 5.5006 53.7929 5.66956C53.9618 5.83852 54.0568 6.06768 54.0568 6.30662ZM43.3463 5.40568H34.135C33.3533 10.8606 33.2227 16.3892 33.7458 21.875L36.0919 19.3307C36.4294 18.9649 36.8389 18.673 37.2948 18.4733C37.7507 18.2736 38.243 18.1705 38.7407 18.1705C39.2384 18.1705 39.7307 18.2736 40.1865 18.4733C40.6424 18.673 41.052 18.9649 41.3895 19.3307L43.7355 21.875C44.2587 16.3892 44.128 10.8606 43.3463 5.40568ZM13.5142 45.0473H54.0568V60.3634C54.0568 60.6023 53.9618 60.8315 53.7929 61.0004C53.6239 61.1694 53.3948 61.2643 53.1558 61.2643H13.5142C11.3637 61.2643 9.30125 60.41 7.78061 58.8894C6.25996 57.3688 5.40568 55.3063 5.40568 53.1558C5.40568 51.0053 6.25996 48.9429 7.78061 47.4222C9.30125 45.9016 11.3637 45.0473 13.5142 45.0473Z" fill="#A1ABFF"/>
</svg>
