<svg width="67" height="67" viewBox="0 0 67 67" fill="none" xmlns="http://www.w3.org/2000/svg">
<path d="M33.335 50.0025C34.2795 50.0025 35.0717 49.6825 35.7118 49.0424C36.3518 48.4024 36.6707 47.6113 36.6685 46.669V33.335C36.6685 32.3905 36.3485 31.5993 35.7084 30.9615C35.0684 30.3237 34.2773 30.0037 33.335 30.0015C32.3927 29.9993 31.6016 30.3193 30.9615 30.9615C30.3215 31.6038 30.0015 32.3949 30.0015 33.335V46.669C30.0015 47.6135 30.3215 48.4057 30.9615 49.0458C31.6016 49.6858 32.3927 50.0047 33.335 50.0025ZM33.335 23.3345C34.2795 23.3345 35.0717 23.0145 35.7118 22.3744C36.3518 21.7344 36.6707 20.9433 36.6685 20.001C36.6663 19.0587 36.3462 18.2676 35.7084 17.6275C35.0706 16.9875 34.2795 16.6675 33.335 16.6675C32.3905 16.6675 31.5993 16.9875 30.9615 17.6275C30.3237 18.2676 30.0037 19.0587 30.0015 20.001C29.9993 20.9433 30.3193 21.7355 30.9615 22.3778C31.6038 23.02 32.3949 23.3389 33.335 23.3345ZM33.335 66.67C28.7236 66.67 24.3901 65.7944 20.3343 64.0432C16.2786 62.292 12.7506 59.9174 9.75049 56.9195C6.75034 53.9216 4.37578 50.3936 2.6268 46.3356C0.877826 42.2777 0.00222655 37.9441 4.21962e-06 33.335C-0.00221811 28.7259 0.873381 24.3923 2.6268 20.3343C4.38022 16.2764 6.75478 12.7484 9.75049 9.75049C12.7462 6.75256 16.2741 4.378 20.3343 2.6268C24.3946 0.875599 28.7281 0 33.335 0C37.9419 0 42.2754 0.875599 46.3356 2.6268C50.3958 4.378 53.9238 6.75256 56.9195 9.75049C59.9152 12.7484 62.2909 16.2764 64.0465 20.3343C65.8022 24.3923 66.6767 28.7259 66.67 33.335C66.6633 37.9441 65.7877 42.2777 64.0432 46.3356C62.2987 50.3936 59.9241 53.9216 56.9195 56.9195C53.9149 59.9174 50.3869 62.2931 46.3356 64.0465C42.2843 65.7999 37.9508 66.6744 33.335 66.67ZM33.335 60.003C40.7798 60.003 47.0857 57.4195 52.2526 52.2526C57.4195 47.0857 60.003 40.7798 60.003 33.335C60.003 25.8902 57.4195 19.5843 52.2526 14.4174C47.0857 9.25046 40.7798 6.667 33.335 6.667C25.8902 6.667 19.5843 9.25046 14.4174 14.4174C9.25046 19.5843 6.667 25.8902 6.667 33.335C6.667 40.7798 9.25046 47.0857 14.4174 52.2526C19.5843 57.4195 25.8902 60.003 33.335 60.003Z" fill="#A1ABFF"/>
</svg>
