<svg width="58" height="67" viewBox="0 0 58 67" fill="none" xmlns="http://www.w3.org/2000/svg">
<path d="M28.5729 0L0 9.52429V38.0971C0 53.8792 12.7908 66.67 28.5729 66.67C44.3549 66.67 57.1457 53.8792 57.1457 38.0971V9.52429L28.5729 0ZM51.7883 38.0971C51.7883 50.9177 41.3934 61.3126 28.5729 61.3126C15.7523 61.3126 5.35741 50.9177 5.35741 38.0971V13.5423L28.5729 5.35741L51.7883 13.5423V38.0971Z" fill="#A1ABFF"/>
<path d="M18.6319 30.5889C18.3837 30.3395 18.0886 30.1416 17.7636 30.0065C17.4386 29.8715 17.0902 29.802 16.7382 29.802C16.3863 29.802 16.0379 29.8715 15.7129 30.0065C15.3879 30.1416 15.0928 30.3395 14.8445 30.5889C14.5951 30.8372 14.3972 31.1323 14.2622 31.4573C14.1271 31.7822 14.0576 32.1307 14.0576 32.4826C14.0576 32.8345 14.1271 33.183 14.2622 33.5079C14.3972 33.8329 14.5951 34.128 14.8445 34.3763L24.473 44.0048L24.6293 44.161C24.8641 44.3963 25.143 44.583 25.4501 44.7103C25.7572 44.8377 26.0863 44.9032 26.4188 44.9032C26.7512 44.9032 27.0804 44.8377 27.3874 44.7103C27.6945 44.583 27.9735 44.3963 28.2083 44.161L44.8386 27.5307C45.0739 27.2959 45.2605 27.0169 45.3879 26.7099C45.5153 26.4028 45.5808 26.0736 45.5808 25.7412C45.5808 25.4088 45.5153 25.0796 45.3879 24.7725C45.2605 24.4655 45.0739 24.1865 44.8386 23.9517L44.6303 23.7433C44.3954 23.508 44.1165 23.3214 43.8094 23.194C43.5023 23.0667 43.1732 23.0011 42.8407 23.0011C42.5083 23.0011 42.1791 23.0667 41.8721 23.194C41.565 23.3214 41.286 23.508 41.0512 23.7433L26.4151 38.372L18.6319 30.5889Z" fill="#A1ABFF"/>
</svg>
