<svg width="102" height="19" viewBox="0 0 102 19" fill="none" xmlns="http://www.w3.org/2000/svg">
<path d="M-0.000390632 14.2L6.29961 0.19995H8.85961L15.1796 14.2H12.4596L7.03961 1.57995H8.07961L2.67961 14.2H-0.000390632ZM2.89961 10.96L3.59961 8.91995H11.1596L11.8596 10.96H2.89961ZM22.6401 14.34C21.7734 14.34 20.9801 14.14 20.2601 13.74C19.5534 13.34 18.9867 12.74 18.5601 11.94C18.1467 11.1266 17.9401 10.1 17.9401 8.85995C17.9401 7.60662 18.1401 6.57995 18.5401 5.77995C18.9534 4.97995 19.5134 4.38662 20.2201 3.99995C20.9267 3.59995 21.7334 3.39995 22.6401 3.39995C23.6934 3.39995 24.6201 3.62662 25.4201 4.07995C26.2334 4.53328 26.8734 5.16662 27.3401 5.97995C27.8201 6.79328 28.0601 7.75328 28.0601 8.85995C28.0601 9.96662 27.8201 10.9333 27.3401 11.76C26.8734 12.5733 26.2334 13.2066 25.4201 13.66C24.6201 14.1133 23.6934 14.34 22.6401 14.34ZM16.7201 18.08V3.51995H19.1001V6.03995L19.0201 8.87995L19.2201 11.72V18.08H16.7201ZM22.3601 12.2C22.9601 12.2 23.4934 12.0666 23.9601 11.8C24.4401 11.5333 24.8201 11.1466 25.1001 10.64C25.3801 10.1333 25.5201 9.53995 25.5201 8.85995C25.5201 8.16662 25.3801 7.57328 25.1001 7.07995C24.8201 6.57328 24.4401 6.18662 23.9601 5.91995C23.4934 5.65328 22.9601 5.51995 22.3601 5.51995C21.7601 5.51995 21.2201 5.65328 20.7401 5.91995C20.2601 6.18662 19.8801 6.57328 19.6001 7.07995C19.3201 7.57328 19.1801 8.16662 19.1801 8.85995C19.1801 9.53995 19.3201 10.1333 19.6001 10.64C19.8801 11.1466 20.2601 11.5333 20.7401 11.8C21.2201 12.0666 21.7601 12.2 22.3601 12.2ZM36.351 14.34C35.4843 14.34 34.691 14.14 33.971 13.74C33.2643 13.34 32.6977 12.74 32.271 11.94C31.8577 11.1266 31.651 10.1 31.651 8.85995C31.651 7.60662 31.851 6.57995 32.251 5.77995C32.6643 4.97995 33.2243 4.38662 33.931 3.99995C34.6377 3.59995 35.4443 3.39995 36.351 3.39995C37.4043 3.39995 38.331 3.62662 39.131 4.07995C39.9443 4.53328 40.5843 5.16662 41.051 5.97995C41.531 6.79328 41.771 7.75328 41.771 8.85995C41.771 9.96662 41.531 10.9333 41.051 11.76C40.5843 12.5733 39.9443 13.2066 39.131 13.66C38.331 14.1133 37.4043 14.34 36.351 14.34ZM30.431 18.08V3.51995H32.811V6.03995L32.731 8.87995L32.931 11.72V18.08H30.431ZM36.071 12.2C36.671 12.2 37.2043 12.0666 37.671 11.8C38.151 11.5333 38.531 11.1466 38.811 10.64C39.091 10.1333 39.231 9.53995 39.231 8.85995C39.231 8.16662 39.091 7.57328 38.811 7.07995C38.531 6.57328 38.151 6.18662 37.671 5.91995C37.2043 5.65328 36.671 5.51995 36.071 5.51995C35.471 5.51995 34.931 5.65328 34.451 5.91995C33.971 6.18662 33.591 6.57328 33.311 7.07995C33.031 7.57328 32.891 8.16662 32.891 8.85995C32.891 9.53995 33.031 10.1333 33.311 10.64C33.591 11.1466 33.971 11.5333 34.451 11.8C34.931 12.0666 35.471 12.2 36.071 12.2ZM54.2493 14.4C53.156 14.4 52.1093 14.2466 51.1093 13.94C50.1093 13.62 49.316 13.2133 48.7293 12.72L49.6293 10.7C50.1893 11.14 50.8826 11.5066 51.7093 11.8C52.536 12.0933 53.3826 12.24 54.2493 12.24C54.9826 12.24 55.576 12.16 56.0293 12C56.4826 11.84 56.816 11.6266 57.0293 11.36C57.2426 11.08 57.3493 10.7666 57.3493 10.42C57.3493 9.99328 57.196 9.65328 56.8893 9.39995C56.5826 9.13328 56.1826 8.92662 55.6893 8.77995C55.2093 8.61995 54.6693 8.47328 54.0693 8.33995C53.4826 8.20662 52.8893 8.05328 52.2893 7.87995C51.7026 7.69328 51.1626 7.45995 50.6693 7.17995C50.1893 6.88662 49.796 6.49995 49.4893 6.01995C49.1826 5.53995 49.0293 4.92662 49.0293 4.17995C49.0293 3.41995 49.2293 2.72662 49.6293 2.09995C50.0426 1.45995 50.6626 0.953283 51.4893 0.57995C52.3293 0.193284 53.3893 -4.95911e-05 54.6693 -4.95911e-05C55.5093 -4.95911e-05 56.3426 0.106617 57.1693 0.319951C57.996 0.533284 58.716 0.839951 59.3293 1.23995L58.5093 3.25995C57.8826 2.88662 57.236 2.61328 56.5693 2.43995C55.9026 2.25328 55.2626 2.15995 54.6493 2.15995C53.9293 2.15995 53.3426 2.24662 52.8893 2.41995C52.4493 2.59328 52.1226 2.81995 51.9093 3.09995C51.7093 3.37995 51.6093 3.69995 51.6093 4.05995C51.6093 4.48662 51.756 4.83328 52.0493 5.09995C52.356 5.35328 52.7493 5.55328 53.2293 5.69995C53.7226 5.84662 54.2693 5.99328 54.8693 6.13995C55.4693 6.27328 56.0626 6.42662 56.6493 6.59995C57.2493 6.77328 57.7893 6.99995 58.2693 7.27995C58.7626 7.55995 59.156 7.93995 59.4493 8.41995C59.756 8.89995 59.9093 9.50662 59.9093 10.24C59.9093 10.9866 59.7026 11.68 59.2893 12.32C58.8893 12.9466 58.2693 13.4533 57.4293 13.84C56.5893 14.2133 55.5293 14.4 54.2493 14.4ZM66.2674 14.34C65.0941 14.34 64.1874 14.04 63.5474 13.44C62.9074 12.8266 62.5874 11.9266 62.5874 10.74V1.15995H65.0874V10.68C65.0874 11.1866 65.2141 11.58 65.4674 11.86C65.7341 12.14 66.1008 12.28 66.5674 12.28C67.1274 12.28 67.5941 12.1333 67.9674 11.84L68.6674 13.62C68.3741 13.86 68.0141 14.04 67.5874 14.16C67.1608 14.28 66.7208 14.34 66.2674 14.34ZM60.8274 5.59995V3.59995H67.9474V5.59995H60.8274ZM75.1724 14.34C74.0791 14.34 73.1058 14.1066 72.2524 13.64C71.3991 13.16 70.7258 12.5066 70.2324 11.68C69.7391 10.8533 69.4924 9.91328 69.4924 8.85995C69.4924 7.79328 69.7391 6.85328 70.2324 6.03995C70.7258 5.21328 71.3991 4.56662 72.2524 4.09995C73.1058 3.63328 74.0791 3.39995 75.1724 3.39995C76.2791 3.39995 77.2591 3.63328 78.1124 4.09995C78.9791 4.56662 79.6524 5.20662 80.1324 6.01995C80.6258 6.83328 80.8724 7.77995 80.8724 8.85995C80.8724 9.91328 80.6258 10.8533 80.1324 11.68C79.6524 12.5066 78.9791 13.16 78.1124 13.64C77.2591 14.1066 76.2791 14.34 75.1724 14.34ZM75.1724 12.2C75.7858 12.2 76.3324 12.0666 76.8124 11.8C77.2924 11.5333 77.6658 11.1466 77.9324 10.64C78.2124 10.1333 78.3524 9.53995 78.3524 8.85995C78.3524 8.16662 78.2124 7.57328 77.9324 7.07995C77.6658 6.57328 77.2924 6.18662 76.8124 5.91995C76.3324 5.65328 75.7924 5.51995 75.1924 5.51995C74.5791 5.51995 74.0324 5.65328 73.5524 5.91995C73.0858 6.18662 72.7124 6.57328 72.4324 7.07995C72.1524 7.57328 72.0124 8.16662 72.0124 8.85995C72.0124 9.53995 72.1524 10.1333 72.4324 10.64C72.7124 11.1466 73.0858 11.5333 73.5524 11.8C74.0324 12.0666 74.5724 12.2 75.1724 12.2ZM83.263 14.2V3.51995H85.643V6.45995L85.363 5.59995C85.683 4.87995 86.183 4.33328 86.863 3.95995C87.5564 3.58662 88.4164 3.39995 89.443 3.39995V5.77995C89.3364 5.75328 89.2364 5.73995 89.143 5.73995C89.0497 5.72662 88.9564 5.71995 88.863 5.71995C87.9164 5.71995 87.163 5.99995 86.603 6.55995C86.043 7.10662 85.763 7.92662 85.763 9.01995V14.2H83.263ZM96.4862 14.34C95.2995 14.34 94.2595 14.1066 93.3662 13.64C92.4862 13.16 91.7995 12.5066 91.3062 11.68C90.8262 10.8533 90.5862 9.91328 90.5862 8.85995C90.5862 7.79328 90.8195 6.85328 91.2862 6.03995C91.7662 5.21328 92.4195 4.56662 93.2462 4.09995C94.0862 3.63328 95.0395 3.39995 96.1062 3.39995C97.1462 3.39995 98.0728 3.62662 98.8862 4.07995C99.6995 4.53328 100.34 5.17328 100.806 5.99995C101.273 6.82662 101.506 7.79995 101.506 8.91995C101.506 9.02662 101.5 9.14662 101.486 9.27995C101.486 9.41328 101.48 9.53995 101.466 9.65995H92.5662V7.99995H100.146L99.1662 8.51995C99.1795 7.90662 99.0528 7.36662 98.7862 6.89995C98.5195 6.43328 98.1528 6.06662 97.6862 5.79995C97.2328 5.53328 96.7062 5.39995 96.1062 5.39995C95.4928 5.39995 94.9528 5.53328 94.4862 5.79995C94.0328 6.06662 93.6728 6.43995 93.4062 6.91995C93.1528 7.38662 93.0262 7.93995 93.0262 8.57995V8.97995C93.0262 9.61995 93.1728 10.1866 93.4662 10.68C93.7595 11.1733 94.1728 11.5533 94.7062 11.82C95.2395 12.0866 95.8528 12.22 96.5462 12.22C97.1462 12.22 97.6862 12.1266 98.1662 11.94C98.6462 11.7533 99.0728 11.46 99.4462 11.06L100.786 12.6C100.306 13.16 99.6995 13.5933 98.9662 13.9C98.2462 14.1933 97.4195 14.34 96.4862 14.34Z" fill="white"/>
</svg>
