<svg width="29" height="29" viewBox="0 0 29 29" fill="none" xmlns="http://www.w3.org/2000/svg">
<path fill-rule="evenodd" clip-rule="evenodd" d="M14.5 0C22.5084 0 29 6.49165 29 14.5C29 22.5084 22.5084 29 14.5 29C6.49165 29 0 22.5084 0 14.5C0 6.49165 6.49165 0 14.5 0ZM15.225 15.95H6.235C5.85044 15.95 5.48162 16.1028 5.2097 16.3747C4.93777 16.6466 4.785 17.0154 4.785 17.4C4.785 17.7846 4.93777 18.1534 5.2097 18.4253C5.48162 18.6972 5.85044 18.85 6.235 18.85H6.9803L6.56415 19.591C6.47104 19.7572 6.41158 19.9401 6.38917 20.1293C6.36675 20.3186 6.38183 20.5103 6.43354 20.6937C6.48524 20.8771 6.57256 21.0485 6.6905 21.1982C6.80845 21.3478 6.95472 21.4727 7.12095 21.5658C7.28718 21.659 7.47013 21.7184 7.65934 21.7408C7.84856 21.7632 8.04033 21.7482 8.22372 21.6965C8.4071 21.6448 8.57851 21.5574 8.72815 21.4395C8.87779 21.3216 9.00274 21.1753 9.09585 21.0091L10.3037 18.85H15.225C15.6096 18.85 15.9784 18.6972 16.2503 18.4253C16.5222 18.1534 16.675 17.7846 16.675 17.4C16.675 17.0154 16.5222 16.6466 16.2503 16.3747C15.9784 16.1028 15.6096 15.95 15.225 15.95ZM17.9699 11.6174C17.7907 11.2917 17.4933 11.0472 17.139 10.9344C16.7848 10.8217 16.4008 10.8493 16.0663 11.0116C15.7318 11.1739 15.4725 11.4585 15.3418 11.8065C15.2112 12.1546 15.2192 12.5395 15.3642 12.8818L15.4396 13.0341L19.9056 21.0091C20.0865 21.3315 20.3837 21.5727 20.7365 21.6833C21.0893 21.7939 21.471 21.7655 21.8035 21.6041C22.1361 21.4426 22.3945 21.1602 22.5257 20.8145C22.657 20.4689 22.6513 20.0862 22.5098 19.7446L22.4344 19.591L22.0197 18.8515H22.765C23.1368 18.8544 23.4956 18.7144 23.7671 18.4603C24.0386 18.2063 24.2022 17.8576 24.224 17.4864C24.2458 17.1152 24.1241 16.7498 23.8841 16.4658C23.6442 16.1817 23.3043 16.0007 22.9347 15.9602L22.765 15.95H20.3957L17.9699 11.6174ZM14.3159 5.0924C14.1367 4.76665 13.8393 4.52216 13.485 4.40942C13.1308 4.29668 12.7468 4.32432 12.4123 4.48662C12.0778 4.64892 11.8185 4.93348 11.6878 5.28152C11.5572 5.62956 11.5652 6.0145 11.7102 6.3568L11.7842 6.50905L12.8383 8.3897L10.2182 13.0674C10.0358 13.3904 9.98422 13.7709 10.0739 14.1308C10.1636 14.4907 10.3878 14.8025 10.7003 15.0022C11.0129 15.2018 11.3901 15.2741 11.7543 15.2041C12.1185 15.1342 12.4421 14.9274 12.6585 14.6262L12.7499 14.4841L17.2159 6.50905C17.4006 6.18597 17.4541 5.80422 17.3652 5.44281C17.2762 5.08141 17.0518 4.76803 16.7382 4.56756C16.4246 4.36708 16.046 4.29485 15.6806 4.36583C15.3153 4.43681 14.9912 4.64555 14.7755 4.94885L14.6856 5.09095L14.5 5.423L14.3159 5.0924Z" fill="white"/>
</svg>
