<svg width="12" height="8" viewBox="0 0 12 8" fill="none" xmlns="http://www.w3.org/2000/svg">
<path d="M0.499811 3.18457C0.223669 3.18467 -0.000104312 3.40862 2.98023e-08 3.68476C0.000104372 3.9609 0.224047 4.18467 0.500189 4.18457L0.5 3.68457L0.499811 3.18457ZM11.1916 4.03408C11.3868 3.83875 11.3866 3.52217 11.1913 3.32698L8.00813 0.146199C7.81279 -0.0489893 7.49621 -0.0488697 7.30102 0.146466C7.10583 0.341802 7.10595 0.658385 7.30129 0.853573L10.1308 3.68093L7.30343 6.51043C7.10824 6.70576 7.10836 7.02235 7.30369 7.21753C7.49903 7.41272 7.81561 7.4126 8.0108 7.21727L11.1916 4.03408ZM0.5 3.68457L0.500189 4.18457L10.8381 4.18066L10.8379 3.68066L10.8377 3.18066L0.499811 3.18457L0.5 3.68457Z" fill="#A1ABFF"/>
</svg>
