<svg width="30" height="21" viewBox="0 0 30 21" fill="none" xmlns="http://www.w3.org/2000/svg">
<path d="M29.9969 4.6875C29.9969 3.4443 29.4519 2.25201 28.4819 1.37294C27.5119 0.49386 26.1963 0 24.8245 0H5.16928C3.98154 0.000652879 2.83022 0.37174 1.90876 1.05092C0.987301 1.7301 0.351842 2.67598 0.109142 3.72967C-0.133559 4.78336 0.0312865 5.88064 0.575985 6.83717C1.12068 7.79371 2.01204 8.55121 3.10032 8.98242V18.75C3.10032 19.2473 3.3183 19.7242 3.7063 20.0758C4.09431 20.4275 4.62056 20.625 5.16928 20.625H24.8245C25.3732 20.625 25.8994 20.4275 26.2874 20.0758C26.6754 19.7242 26.8934 19.2473 26.8934 18.75V8.98242C27.815 8.61694 28.5993 8.01617 29.1504 7.25348C29.7015 6.49078 29.9956 5.59917 29.9969 4.6875ZM5.16928 9.375C5.44365 9.375 5.70677 9.27623 5.90077 9.10041C6.09478 8.9246 6.20377 8.68614 6.20377 8.4375C6.20377 8.18886 6.09478 7.9504 5.90077 7.77459C5.70677 7.59877 5.44365 7.5 5.16928 7.5C4.3462 7.5 3.55682 7.20368 2.97481 6.67624C2.39281 6.14879 2.06584 5.43342 2.06584 4.6875C2.06584 3.94158 2.39281 3.22621 2.97481 2.69876C3.55682 2.17132 4.3462 1.875 5.16928 1.875H17.5831C18.4062 1.875 19.1955 2.17132 19.7775 2.69876C20.3596 3.22621 20.6865 3.94158 20.6865 4.6875C20.6865 5.43342 20.3596 6.14879 19.7775 6.67624C19.1955 7.20368 18.4062 7.5 17.5831 7.5C17.3087 7.5 17.0456 7.59877 16.8516 7.77459C16.6576 7.9504 16.5486 8.18886 16.5486 8.4375C16.5486 8.68614 16.6576 8.9246 16.8516 9.10041C17.0456 9.27623 17.3087 9.375 17.5831 9.375V18.75H5.16928V9.375ZM24.8245 7.5C24.5501 7.5 24.287 7.59877 24.093 7.77459C23.899 7.9504 23.79 8.18886 23.79 8.4375C23.79 8.68614 23.899 8.9246 24.093 9.10041C24.287 9.27623 24.5501 9.375 24.8245 9.375V18.75H19.652V8.98242C20.367 8.6995 21.0022 8.27366 21.5098 7.73678C22.0175 7.19991 22.3846 6.56591 22.5836 5.88226C22.7826 5.19861 22.8084 4.48301 22.659 3.78905C22.5096 3.09509 22.189 2.44074 21.721 1.875H24.8245C25.6475 1.875 26.4369 2.17132 27.0189 2.69876C27.6009 3.22621 27.9279 3.94158 27.9279 4.6875C27.9279 5.43342 27.6009 6.14879 27.0189 6.67624C26.4369 7.20368 25.6475 7.5 24.8245 7.5Z" fill="#8A6914"/>
</svg>
