<svg width="12" height="12" viewBox="0 0 12 12" fill="none" xmlns="http://www.w3.org/2000/svg">
<path fill-rule="evenodd" clip-rule="evenodd" d="M0.251051 11.1607C-0.0836838 10.826 -0.0836838 10.2833 0.251051 9.94852L9.94852 0.251051C10.2833 -0.0836835 10.826 -0.0836838 11.1607 0.251051C11.4954 0.585786 11.4954 1.1285 11.1607 1.46323L1.46323 11.1607C1.1285 11.4954 0.585786 11.4954 0.251051 11.1607Z" fill="white"/>
<path fill-rule="evenodd" clip-rule="evenodd" d="M0.251051 0.251051C0.585786 -0.0836838 1.1285 -0.0836838 1.46323 0.251051L11.1607 9.94852C11.4954 10.2833 11.4954 10.826 11.1607 11.1607C10.826 11.4954 10.2833 11.4954 9.94852 11.1607L0.251051 1.46323C-0.0836838 1.1285 -0.0836838 0.585786 0.251051 0.251051Z" fill="white"/>
</svg>
