<svg width="11" height="14" viewBox="0 0 11 14" fill="none" xmlns="http://www.w3.org/2000/svg">
<path d="M9.98162 7.27347C10.1566 7.44849 10.2549 7.68585 10.2549 7.93333C10.2549 8.18082 10.1566 8.41817 9.98162 8.5932L5.78161 12.7932C5.60659 12.9682 5.36924 13.0665 5.12175 13.0665C4.87426 13.0665 4.63691 12.9682 4.46188 12.7932L0.261882 8.5932C0.0918674 8.41717 -0.0022068 8.18141 -8.10623e-05 7.93669C0.00204563 7.69198 0.100204 7.45788 0.273251 7.28484C0.446299 7.11179 0.68039 7.01363 0.925107 7.0115C1.16982 7.00938 1.40559 7.10345 1.58161 7.27347L4.18842 9.8L4.18842 0.933333C4.18842 0.685798 4.28675 0.448401 4.46178 0.273367C4.63682 0.0983331 4.87421 0 5.12175 0C5.36928 0 5.60668 0.0983331 5.78171 0.273367C5.95675 0.448401 6.05508 0.685798 6.05508 0.933333L6.05508 9.8L8.66188 7.27347C8.83691 7.09849 9.07426 7.0002 9.32175 7.0002C9.56924 7.0002 9.80659 7.09849 9.98162 7.27347Z" fill="black"/>
</svg>
