<svg width="26" height="22" viewBox="0 0 26 22" fill="none" xmlns="http://www.w3.org/2000/svg">
<path d="M18.2715 0C15.9424 0 13.9033 1.00155 12.6321 2.69448C11.361 1.00155 9.32185 0 6.99279 0C5.13883 0.00208965 3.3614 0.7395 2.05045 2.05045C0.7395 3.3614 0.00208965 5.13883 0 6.99279C0 14.8879 11.7062 21.2784 12.2047 21.5423C12.3361 21.613 12.4829 21.65 12.6321 21.65C12.7813 21.65 12.9282 21.613 13.0596 21.5423C13.5581 21.2784 25.2643 14.8879 25.2643 6.99279C25.2622 5.13883 24.5248 3.3614 23.2138 2.05045C21.9029 0.7395 20.1255 0.00208965 18.2715 0ZM12.6321 19.7152C10.5727 18.5151 1.80459 13.0483 1.80459 6.99279C1.80638 5.61735 2.35357 4.29875 3.32616 3.32616C4.29875 2.35357 5.61735 1.80638 6.99279 1.80459C9.1865 1.80459 11.0283 2.97307 11.7975 4.84984C11.8655 5.01533 11.9811 5.15688 12.1298 5.25649C12.2784 5.35611 12.4532 5.4093 12.6321 5.4093C12.8111 5.4093 12.9859 5.35611 13.1345 5.25649C13.2831 5.15688 13.3988 5.01533 13.4668 4.84984C14.236 2.96968 16.0778 1.80459 18.2715 1.80459C19.6469 1.80638 20.9655 2.35357 21.9381 3.32616C22.9107 4.29875 23.4579 5.61735 23.4597 6.99279C23.4597 13.0393 14.6894 18.514 12.6321 19.7152Z" fill="#FEFBF6"/>
</svg>
