<svg width="20" height="22" viewBox="0 0 20 22" fill="none" xmlns="http://www.w3.org/2000/svg">
<path d="M13.5 18.5C13.5 19.163 13.7634 19.7989 14.2322 20.2678C14.7011 20.7366 15.337 21 16 21C16.663 21 17.2989 20.7366 17.7678 20.2678C18.2366 19.7989 18.5 19.163 18.5 18.5C18.5 17.837 18.2366 17.2011 17.7678 16.7322C17.2989 16.2634 16.663 16 16 16C15.337 16 14.7011 16.2634 14.2322 16.7322C13.7634 17.2011 13.5 17.837 13.5 18.5ZM13.5 18.5H3.5M13.5 13.5L14.75 16M6 13.5L2.25 21M13.5 2.25V1M9.75 2.25V1M6 2.25V1M18.5 6H1C1 7.98912 1.79018 9.89678 3.1967 11.3033C4.60322 12.7098 6.51088 13.5 8.5 13.5H11C12.9413 13.5014 14.8076 12.7499 16.2063 11.4037C17.605 10.0574 18.4272 8.22123 18.5 6.28125V6Z" stroke="#903113" stroke-width="2" stroke-linecap="round" stroke-linejoin="round"/>
</svg>
