<svg width="24" height="27" viewBox="0 0 24 27" fill="none" xmlns="http://www.w3.org/2000/svg">
<path d="M11.5603 12.7061L0 24.7319C0.129788 25.1888 0.363056 25.6101 0.681973 25.9637C1.00089 26.3173 1.39701 26.5938 1.84006 26.7721C2.2831 26.9504 2.76134 27.0257 3.23821 26.9924C3.71509 26.9591 4.17797 26.8179 4.59148 26.5797L17.5994 19.2238L11.5603 12.7061Z" fill="#EA4335"/>
<path d="M22.4704 10.9697L17.1683 7.94141L11.2002 13.1643L17.1924 19.059L22.4542 16.063C22.9204 15.8196 23.3108 15.4537 23.5833 15.0047C23.8557 14.5558 23.9998 14.0411 23.9998 13.5164C23.9998 12.9916 23.8557 12.4769 23.5833 12.028C23.3108 11.5791 22.9204 11.2131 22.4542 10.9697H22.4704Z" fill="#FBBC04"/>
<path d="M0.103005 2.38232C0.0334334 2.63231 -0.0012023 2.89027 3.18516e-05 3.14925V23.8508C0.000846946 24.1097 0.0353526 24.3673 0.103005 24.6175L11.9996 13.2003L0.103005 2.38232Z" fill="#4285F4"/>
<path d="M11.6297 13.4999L17.5994 7.72032L4.62733 0.43062C4.13929 0.150141 3.58417 0.00155775 3.01853 4.58242e-06C2.33564 -0.00115213 1.67109 0.216705 1.12614 0.620379C0.58119 1.02405 0.185723 1.59141 0 2.23599L11.6297 13.4999Z" fill="#34A853"/>
</svg>
