<svg width="108" height="22" viewBox="0 0 108 22" fill="none" xmlns="http://www.w3.org/2000/svg">
<path d="M105.082 6.09967L102.441 12.7934H102.362L99.6062 6.09967H97.1149L101.244 15.457L98.8845 20.6615H101.305L107.671 6.09967H105.082ZM86.4183 0.544891H84.1117V15.9827H86.4183V0.544891ZM77.7377 0.544891H72.1914V15.9827H74.5155V10.1388H77.7463C78.3978 10.161 79.0471 10.0542 79.6567 9.82455C80.2663 9.59492 80.824 9.24708 81.2974 8.8012C81.7708 8.35533 82.1505 7.8203 82.4145 7.22719C82.6784 6.63408 82.8213 5.9947 82.835 5.34616C82.8214 4.69647 82.6782 4.05594 82.4139 3.46175C82.1495 2.86756 81.7692 2.33155 81.295 1.88485C80.8207 1.43815 80.2621 1.08964 79.6514 0.859568C79.0408 0.629495 78.3903 0.522716 77.7377 0.544891ZM77.7991 7.98301H74.5155V2.72625H77.808C78.5085 2.72625 79.1803 3.00318 79.6756 3.49613C80.1709 3.98907 80.4492 4.65764 80.4492 5.35477C80.4492 6.0519 80.1709 6.72047 79.6756 7.21341C79.1803 7.70636 78.5085 7.98329 77.808 7.98329L77.7991 7.98301ZM92.1055 5.76638C91.2606 5.71809 90.42 5.91617 89.6865 6.33634C88.9531 6.75652 88.3587 7.38052 87.9763 8.13188L90.0365 9.00814C90.2406 8.63664 90.5494 8.33259 90.9248 8.13334C91.3002 7.9341 91.7259 7.84835 92.1496 7.88664C92.4405 7.85767 92.7343 7.88621 93.0141 7.97061C93.2938 8.055 93.5541 8.1936 93.7799 8.37842C94.0057 8.56324 94.1925 8.79065 94.3297 9.04758C94.4669 9.3045 94.5517 9.58587 94.5792 9.87552V10.0333C93.8411 9.63592 93.015 9.4281 92.1758 9.42864C89.9661 9.42864 87.7123 10.6379 87.7123 12.9334C87.7123 15.0012 89.5171 16.3329 91.5597 16.3329C92.1409 16.3696 92.7212 16.2489 93.2389 15.9835C93.7567 15.7182 94.1925 15.3181 94.5 14.8259H94.5882V16.0174H96.842V10.0774C96.842 7.33505 94.7818 5.81054 92.1228 5.81054L92.1055 5.76638ZM91.8326 14.2302C91.0755 14.2302 90.0189 13.8447 90.0189 12.9159C90.0189 11.7244 91.3305 11.2689 92.4753 11.2689C93.2134 11.2489 93.9432 11.4275 94.5879 11.7855C94.5029 12.4555 94.177 13.0723 93.6705 13.5217C93.164 13.9711 92.5111 14.2228 91.8326 14.2302ZM8.35491 16.3155C3.79596 16.3305 0.0722801 12.6948 0 8.15826C0.0725592 3.62168 3.79596 -0.0139196 8.35491 0.00107829C9.39878 -0.0161897 10.4356 0.174097 11.4046 0.560784C12.3736 0.947471 13.2554 1.52278 13.9981 2.25298L12.4046 3.82137C11.3238 2.76739 9.86804 2.18153 8.35491 2.1916C5.06324 2.1916 2.39473 4.84734 2.39473 8.12327C2.39473 11.3992 5.06324 14.0549 8.35491 14.0549C9.1242 14.0863 9.89154 13.9567 10.6073 13.6744C11.3231 13.3922 11.9714 12.9635 12.5103 12.4163C13.2268 11.6475 13.6585 10.6586 13.7341 9.61278H8.35491V7.44892H15.9262C16.0088 7.90858 16.047 8.3749 16.0406 8.84206C16.1167 10.7816 15.417 12.6721 14.0949 14.0991C13.3485 14.8494 12.4515 15.4346 11.4624 15.8165C10.4733 16.1984 9.41447 16.3684 8.35491 16.3155ZM27.7497 11.0584C27.7788 11.7594 27.6653 12.459 27.4158 13.1152C27.1663 13.7713 26.7862 14.3706 26.2981 14.8768C25.81 15.383 25.2241 15.7858 24.5757 16.061C23.9272 16.3361 23.2296 16.478 22.5246 16.478C21.8197 16.478 21.122 16.3361 20.4735 16.061C19.8251 15.7858 19.2392 15.383 18.7511 14.8768C18.2631 14.3706 17.8829 13.7713 17.6334 13.1152C17.384 12.459 17.2704 11.7594 17.2995 11.0584C17.2704 10.3574 17.384 9.65784 17.6334 9.00166C17.8829 8.34548 18.2631 7.74627 18.7511 7.24004C19.2392 6.73381 19.8251 6.33101 20.4735 6.05585C21.122 5.78068 21.8197 5.63884 22.5246 5.63884C23.2296 5.63884 23.9272 5.78068 24.5757 6.05585C25.2241 6.33101 25.81 6.73381 26.2981 7.24004C26.7862 7.74627 27.1663 8.34548 27.4158 9.00166C27.6653 9.65784 27.7788 10.3574 27.7497 11.0584ZM25.4607 11.0584C25.4994 10.6515 25.4523 10.241 25.3223 9.8532C25.1924 9.46544 24.9825 9.10897 24.7061 8.80662C24.4297 8.50427 24.0928 8.26272 23.7172 8.09743C23.3415 7.93214 22.9353 7.84676 22.5246 7.84676C22.1139 7.84676 21.7077 7.93214 21.332 8.09743C20.9564 8.26272 20.6196 8.50427 20.3431 8.80662C20.0667 9.10897 19.8568 9.46544 19.7269 9.8532C19.5969 10.241 19.5498 10.6515 19.5885 11.0584C19.5498 11.4654 19.5969 11.8759 19.7269 12.2636C19.8568 12.6514 20.0667 13.0079 20.3431 13.3102C20.6196 13.6126 20.9564 13.8541 21.332 14.0194C21.7077 14.1847 22.1139 14.2701 22.5246 14.2701C22.9353 14.2701 23.3415 14.1847 23.7172 14.0194C24.0928 13.8541 24.4297 13.6126 24.7061 13.3102C24.9825 13.0079 25.1924 12.6514 25.3223 12.2636C25.4523 11.8759 25.4994 11.4654 25.4607 11.0584ZM39.4588 11.0584C39.4588 13.928 37.1213 16.2541 34.2382 16.2541C31.3548 16.2541 29.0173 13.928 29.0173 11.0584C29.0173 8.18882 31.3548 5.86275 34.2382 5.86275C37.1213 5.86275 39.4588 8.18882 39.4588 11.0584ZM37.1788 11.0584C37.2175 10.6515 37.1703 10.241 37.0404 9.8532C36.9104 9.46544 36.7005 9.10897 36.4241 8.80662C36.1477 8.50427 35.8109 8.26272 35.4352 8.09743C35.0596 7.93214 34.6534 7.84676 34.2426 7.84676C33.8319 7.84676 33.4257 7.93214 33.0501 8.09743C32.6744 8.26272 32.3376 8.50427 32.0612 8.80662C31.7848 9.10897 31.5749 9.46544 31.4449 9.8532C31.315 10.241 31.2678 10.6515 31.3065 11.0584C31.2676 11.4655 31.3146 11.8761 31.4444 12.264C31.5743 12.652 31.7841 13.0086 32.0605 13.3111C32.337 13.6136 32.6738 13.8553 33.0496 14.0207C33.4253 14.1861 33.8316 14.2715 34.2425 14.2715C34.6534 14.2715 35.0597 14.1861 35.4354 14.0207C35.8112 13.8553 36.148 13.6136 36.4244 13.3111C36.7009 13.0086 36.9107 12.652 37.0406 12.264C37.1704 11.8761 37.2177 11.4655 37.1788 11.0584ZM50.8858 6.12577V15.5619C50.8858 19.4345 48.5703 21.0292 45.8412 21.0292C44.8408 21.0376 43.8604 20.7508 43.0236 20.205C42.1869 19.6592 41.5314 18.879 41.1399 17.9627L43.1384 17.0865C43.3457 17.6214 43.7067 18.0837 44.1764 18.4157C44.6462 18.7476 45.2037 18.9344 45.7795 18.9529C47.5405 18.9529 48.6144 17.8752 48.6144 15.8686V15.1151H48.5265C48.1811 15.4986 47.7574 15.8041 47.2836 16.0111C46.8098 16.2182 46.297 16.3219 45.7795 16.3155C42.8621 16.3155 40.4972 13.9619 40.4972 11.0584C40.4972 8.15493 42.8621 5.80137 45.7795 5.80137C46.3004 5.78993 46.8177 5.88867 47.2973 6.09106C47.7769 6.29344 48.2078 6.59486 48.5616 6.97538H48.6495V6.09939H50.8858V6.12577ZM48.8346 11.0848C48.8669 10.6882 48.8189 10.2893 48.6933 9.91156C48.5677 9.53384 48.3672 9.18509 48.1036 8.88598C47.84 8.58688 47.5187 8.34353 47.1588 8.17038C46.7989 7.99724 46.4077 7.89782 46.0084 7.87803C45.6013 7.89143 45.201 7.98547 44.8309 8.15466C44.4608 8.32385 44.1283 8.56478 43.8529 8.86337C43.5774 9.16196 43.3646 9.51221 43.2267 9.89364C43.0889 10.2751 43.0289 10.68 43.0502 11.0848C43.0314 11.4868 43.0934 11.8886 43.2326 12.2664C43.3718 12.6443 43.5855 12.9907 43.861 13.2853C44.1365 13.5799 44.4684 13.8168 44.8372 13.9821C45.2059 14.1473 45.6041 14.2376 46.0084 14.2477C46.4053 14.2324 46.7949 14.1375 47.1541 13.9687C47.5132 13.7999 47.8343 13.5606 48.0983 13.2652C48.3622 12.9698 48.5635 12.6245 48.69 12.2498C48.8165 11.8751 48.8657 11.4789 48.8346 11.0848ZM54.9619 0.561833V15.9913H52.6378V0.562111L54.9619 0.561833ZM64.1178 12.7934L65.9315 13.9849C65.4472 14.704 64.7921 15.2929 64.0242 15.6994C63.2563 16.1059 62.3994 16.3174 61.5296 16.3152C60.8377 16.325 60.151 16.195 59.5111 15.9331C58.8711 15.6712 58.2912 15.2827 57.8064 14.7913C57.3216 14.2999 56.9421 13.7157 56.6908 13.074C56.4394 12.4324 56.3215 11.7467 56.3442 11.0584C56.1307 8.60876 57.7981 6.38962 60.2199 5.9008C62.6412 5.41198 65.0457 6.80929 65.8081 9.1484L66.0459 9.75304L59.0029 12.6529C59.2223 13.1438 59.5845 13.5581 60.0426 13.8424C60.5008 14.1266 61.034 14.2678 61.5735 14.2477C62.0867 14.2397 62.5894 14.102 63.0344 13.8476C63.4795 13.5931 63.8523 13.2303 64.1178 12.7932M58.5628 10.9004L63.2992 8.95537C63.1159 8.59824 62.8314 8.30245 62.4808 8.10464C62.1303 7.90683 61.7291 7.81568 61.327 7.84248C60.9426 7.85923 60.5654 7.95204 60.2175 8.11548C59.8695 8.27893 59.5578 8.50972 59.3004 8.7944C59.0431 9.07908 58.8453 9.41193 58.7187 9.77352C58.592 10.1351 58.539 10.5182 58.5628 10.9004Z" fill="white"/>
</svg>
