<svg width="20" height="19" viewBox="0 0 20 19" fill="none" xmlns="http://www.w3.org/2000/svg">
<path d="M12.9309 7.38889L11.8684 7.21578C11.8428 7.36693 11.851 7.52174 11.8926 7.66945C11.9342 7.81716 12.0081 7.95424 12.1092 8.07115C12.2103 8.18807 12.3361 8.28202 12.4781 8.34648C12.62 8.41095 12.7745 8.44437 12.9309 8.44444V7.38889ZM1.07758 7.38889V6.33333C0.791785 6.33333 0.517699 6.44454 0.315614 6.6425C0.11353 6.84045 0 7.10894 0 7.38889H1.07758ZM3.23273 19H15.474V16.8889H3.23273V19ZM16.7671 6.33333H12.9309V8.44444H16.7671V6.33333ZM13.9945 7.562L14.8619 2.45839L12.7369 2.11111L11.8684 7.21578L13.9945 7.562ZM12.7369 0H12.5063V2.11111H12.7369V0ZM8.91909 1.87994L6.21007 5.86361L8.00315 7.03528L10.7143 3.05161L8.91909 1.87994ZM5.31245 6.33333H1.07758V8.44444H5.31245V6.33333ZM0 7.38889V15.8333H2.15515V7.38889H0ZM18.6442 16.454L19.9373 10.1207L17.8253 9.70689L16.5322 16.0402L18.6442 16.454ZM6.21007 5.86361C6.11163 6.00813 5.97722 6.12662 5.82083 6.20856C5.66443 6.2905 5.48981 6.33336 5.31245 6.33333V8.44444C5.84463 8.44441 6.36856 8.31567 6.83776 8.06966C7.30695 7.82366 7.70689 7.46799 8.00207 7.03422L6.21007 5.86361ZM14.8619 2.45839C14.9134 2.15601 14.897 1.84628 14.814 1.55073C14.7309 1.25517 14.5831 0.980882 14.3809 0.746928C14.1787 0.512975 13.9268 0.324969 13.643 0.195981C13.3591 0.0669922 13.0499 0.000115592 12.7369 0V2.11111L14.8619 2.45839ZM16.7671 8.44444C16.9265 8.44438 17.084 8.47899 17.2282 8.54576C17.3723 8.61253 17.4995 8.70981 17.6007 8.83058C17.7018 8.95135 17.7743 9.09259 17.8129 9.24413C17.8516 9.39567 17.8565 9.55372 17.8253 9.70689L19.9373 10.1207C20.031 9.66134 20.0196 9.18737 19.9037 8.73291C19.7879 8.27845 19.5706 7.85482 19.2674 7.49255C18.9643 7.13029 18.5829 6.83841 18.1507 6.63796C17.7185 6.4375 17.2463 6.33346 16.7682 6.33333L16.7671 8.44444ZM15.474 19C16.2214 19 16.9458 18.7464 17.5238 18.2822C18.1018 17.818 18.4977 17.172 18.6442 16.454L16.5322 16.0402C16.4833 16.2798 16.3511 16.4953 16.1581 16.6501C15.9652 16.8048 15.7234 16.8892 15.474 16.8889V19ZM12.5063 0C11.7968 1.18781e-05 11.0982 0.171606 10.4726 0.499554C9.84705 0.827501 9.31271 1.30166 8.91909 1.87994L10.7143 3.05161C10.9111 2.76237 11.1766 2.52519 11.4894 2.36112C11.8022 2.19705 12.1515 2.11118 12.5063 2.11111V0ZM3.23273 16.8889C2.94694 16.8889 2.67285 16.7777 2.47077 16.5797C2.26868 16.3818 2.15515 16.1133 2.15515 15.8333H0C0 16.6732 0.34059 17.4786 0.946844 18.0725C1.5531 18.6664 2.37535 19 3.23273 19V16.8889Z" fill="#A1ABFF"/>
<path d="M5 7V18" stroke="#A1ABFF" stroke-width="2"/>
</svg>
