<svg width="20" height="19" viewBox="0 0 20 19" fill="none" xmlns="http://www.w3.org/2000/svg">
<path fill-rule="evenodd" clip-rule="evenodd" d="M16.7671 8.44444H12.9309C12.7745 8.44437 12.62 8.41095 12.478 8.34648C12.3361 8.28202 12.2103 8.18807 12.1092 8.07115C12.0081 7.95424 11.9342 7.81716 11.8926 7.66945C11.851 7.52174 11.8428 7.36693 11.8684 7.21578L12.7369 2.11111H12.5063C12.1515 2.11118 11.8022 2.19705 11.4894 2.36112C11.1766 2.52519 10.9111 2.76237 10.7143 3.05161L8.00315 7.03528L8.00207 7.03422C7.70689 7.46799 7.30695 7.82366 6.83776 8.06966C6.36856 8.31567 5.84462 8.44441 5.31245 8.44444H2.15515H1.07758V7.38889H0C0 7.10894 0.11353 6.84045 0.315614 6.6425C0.517699 6.44454 0.791784 6.33333 1.07758 6.33333H5.31245C5.48981 6.33336 5.66443 6.2905 5.82083 6.20856C5.97722 6.12662 6.11163 6.00813 6.21007 5.86361L8.91909 1.87994C9.31271 1.30166 9.84705 0.827501 10.4726 0.499554C11.0982 0.171606 11.7968 1.18781e-05 12.5063 0H12.7369C13.0499 0.000115592 13.3591 0.0669922 13.643 0.195981C13.9268 0.324969 14.1787 0.512975 14.3809 0.746928C14.5831 0.980882 14.7309 1.25517 14.814 1.55073C14.897 1.84628 14.9134 2.15601 14.8619 2.45839L14.2033 6.33333H16.7671V8.44444ZM0 15.8333C0 16.6732 0.34059 17.4786 0.946844 18.0725C1.5531 18.6664 2.37535 19 3.23273 19H15.474C16.2214 19 16.9458 18.7464 17.5238 18.2822C18.1018 17.818 18.4977 17.172 18.6442 16.454L19.9373 10.1207C20.031 9.66134 20.0196 9.18737 19.9037 8.73291C19.7879 8.27845 19.5706 7.85482 19.2674 7.49255C18.9643 7.13029 18.5829 6.83841 18.1507 6.63796C17.7185 6.4375 17.2463 6.33346 16.7681 6.33333L16.7671 8.44444C16.9265 8.44438 17.084 8.47899 17.2282 8.54576C17.3723 8.61253 17.4995 8.70981 17.6007 8.83058C17.7018 8.95135 17.7743 9.09259 17.8129 9.24413C17.8516 9.39567 17.8565 9.55372 17.8252 9.70689L16.5322 16.0402C16.4833 16.2798 16.3511 16.4953 16.1581 16.6501C15.9652 16.8048 15.7234 16.8892 15.474 16.8889H3.23273C2.94693 16.8889 2.67285 16.7777 2.47077 16.5797C2.26868 16.3818 2.15515 16.1133 2.15515 15.8333H0Z" fill="#A1ABFF"/>
<path d="M1.07758 7.38889H0V15.8333H2.15515V8.44444H1.07758V7.38889Z" fill="#A1ABFF"/>
<path d="M11.8926 7.66945C11.851 7.52174 11.8428 7.36693 11.8684 7.21578L12.7369 2.11111H12.5063C12.1515 2.11118 11.8022 2.19705 11.4894 2.36112C11.1766 2.52519 10.9111 2.76237 10.7143 3.05161L8.00315 7.03528L8.00207 7.03422C7.70689 7.46799 7.30695 7.82366 6.83776 8.06966C6.36856 8.31567 5.84462 8.44441 5.31245 8.44444H2.15515V15.8333C2.15515 16.1133 2.26868 16.3818 2.47077 16.5797C2.67285 16.7777 2.94693 16.8889 3.23273 16.8889H15.474C15.7234 16.8892 15.9652 16.8048 16.1581 16.6501C16.3511 16.4953 16.4833 16.2798 16.5322 16.0402L17.8252 9.70689C17.8565 9.55372 17.8516 9.39567 17.8129 9.24413C17.7743 9.09259 17.7018 8.95135 17.6007 8.83058C17.4995 8.70981 17.3723 8.61253 17.2282 8.54576C17.084 8.47899 16.9265 8.44438 16.7671 8.44444H12.9309C12.7745 8.44437 12.62 8.41095 12.478 8.34648C12.3361 8.28202 12.2103 8.18807 12.1092 8.07115C12.0081 7.95424 11.9342 7.81716 11.8926 7.66945Z" fill="#A1ABFF" fill-opacity="0.5"/>
<path d="M5 7V18" stroke="#A1ABFF" stroke-width="2"/>
</svg>
