<svg width="35" height="40" viewBox="0 0 35 40" fill="none" xmlns="http://www.w3.org/2000/svg">
<path d="M2.96387 0.0996094H11.9678C12.6465 0.0998429 13.3134 0.280287 13.9004 0.621094C14.4872 0.961903 14.974 1.4518 15.3105 2.04102L16.9775 4.95605L17.0645 5.1084L17.1514 4.95605L18.8184 2.04102C19.155 1.45165 19.6415 0.961914 20.2285 0.621094C20.8154 0.280348 21.4816 0.0999045 22.1602 0.0996094H31.1641C31.6654 0.0994368 32.1582 0.231448 32.5928 0.481445C33.0275 0.731598 33.3898 1.09168 33.6416 1.52539C33.8934 1.95906 34.0265 2.45168 34.0283 2.95312C34.0301 3.45447 33.9 3.94745 33.6514 4.38281L26.9707 16.0732L26.9336 16.1377L26.9854 16.1924C28.8437 18.1357 30.091 20.582 30.5713 23.2275C31.0516 25.8731 30.7441 28.6017 29.6875 31.0742C28.6308 33.5468 26.8709 35.6544 24.627 37.1357C22.383 38.6171 19.7533 39.4072 17.0645 39.4072C14.3755 39.4072 11.7451 38.6171 9.50098 37.1357C7.25715 35.6544 5.49803 33.5466 4.44141 31.0742C3.38475 28.6016 3.07729 25.8732 3.55762 23.2275C4.03798 20.5818 5.2851 18.1357 7.14355 16.1924L7.19434 16.1377L7.15723 16.0732L0.476562 4.38281C0.227993 3.94749 0.0978748 3.45441 0.0996094 2.95312C0.101388 2.4516 0.235463 1.95911 0.487305 1.52539C0.739144 1.0917 1.10049 0.731585 1.53516 0.481445C1.96977 0.231375 2.46245 0.0994633 2.96387 0.0996094ZM17.0645 15.7031C14.4185 15.7031 11.8808 16.7541 10.0098 18.625C8.13876 20.496 7.08691 23.0337 7.08691 25.6797C7.08693 28.3257 8.13877 30.8634 10.0098 32.7344C11.8808 34.6053 14.4185 35.6562 17.0645 35.6562C19.7103 35.6562 22.2482 34.6053 24.1191 32.7344C25.9901 30.8634 27.041 28.3256 27.041 25.6797C27.041 23.0338 25.99 20.496 24.1191 18.625C22.2482 16.7541 19.7103 15.7032 17.0645 15.7031ZM17.0645 21.8291C18.0856 21.8292 19.065 22.235 19.7871 22.957C20.5091 23.6792 20.915 24.6585 20.915 25.6797C20.915 26.7009 20.5092 27.6802 19.7871 28.4023C19.065 29.1244 18.0856 29.5302 17.0645 29.5303C16.0432 29.5303 15.063 29.1245 14.3408 28.4023C13.6189 27.6802 13.2139 26.7008 13.2139 25.6797C13.2139 24.6586 13.6189 23.6791 14.3408 22.957C15.063 22.2349 16.0432 21.8291 17.0645 21.8291ZM4.57812 4L10.1289 13.7129L10.1787 13.7998L10.2656 13.75C12.168 12.6634 14.3041 12.0508 16.4932 11.9639L16.6582 11.957L16.5762 11.8145L12.0547 3.90137L12.0254 3.85059H4.49219L4.57812 4ZM22.0732 3.90137L19.2529 8.83984L19.2246 8.88867L19.2529 8.93848L21.3467 12.6064L21.3662 12.6396L21.4023 12.6523C22.2665 12.94 23.087 13.3057 23.8633 13.75L23.9502 13.7998L24 13.7129L29.5498 4L29.6357 3.85059H22.1025L22.0732 3.90137Z" fill="white" stroke="#F2B310" stroke-width="0.2"/>
</svg>
