<svg width="41" height="41" viewBox="0 0 41 41" fill="none" xmlns="http://www.w3.org/2000/svg">
<path d="M18.3027 12.2607C18.3027 13.8621 17.6665 15.3979 16.5342 16.5303C15.4018 17.6626 13.866 18.2988 12.2646 18.2988C10.6632 18.2988 9.12743 17.6626 7.99507 16.5303C6.86271 15.3979 6.22656 13.8621 6.22656 12.2607C6.22656 10.6593 6.86271 9.12352 7.99507 7.99117C9.12743 6.85881 10.6632 6.22266 12.2646 6.22266C13.866 6.22266 15.4018 6.85881 16.5342 7.99117C17.6665 9.12352 18.3027 10.6593 18.3027 12.2607Z" fill="white"/>
<path d="M34.0412 6.83817C25.7188 -1.46929 12.8003 -2.42748 5.18114 5.17531C-2.43937 12.7836 -1.46346 25.702 6.85762 34.0231C15.1787 42.3442 28.0972 43.3201 35.7177 35.6996C43.3382 28.0791 42.3623 15.1593 34.0412 6.83817ZM7.10841 7.10531C13.4463 0.779651 24.6256 1.29214 32.1139 8.76817C39.6036 16.2565 40.1283 27.4358 33.7904 33.7723C27.4525 40.1102 16.2759 39.5855 8.7849 32.0958C1.29524 24.6062 0.773212 13.4282 7.10841 7.10531Z" fill="white"/>
</svg>
