<svg width="21" height="21" viewBox="0 0 21 21" fill="none" xmlns="http://www.w3.org/2000/svg">
<path d="M0.390782 18.3907C-0.130134 18.9116 -0.130134 19.7561 0.390783 20.2771C0.911699 20.798 1.75627 20.798 2.27719 20.2771L1.33398 19.3339L0.390782 18.3907ZM20.6679 1.33386C20.6679 0.597175 20.0707 -2.75511e-05 19.334 -2.62135e-05L7.32898 -2.57497e-05C6.5923 -2.57187e-05 5.99509 0.597177 5.99509 1.33386C5.99509 2.07055 6.5923 2.66775 7.32898 2.66775L18.0001 2.66775L18.0001 13.3389C18.0001 14.0755 18.5973 14.6728 19.334 14.6728C20.0707 14.6728 20.6679 14.0755 20.6679 13.3389L20.6679 1.33386ZM1.33398 19.3339L2.27719 20.2771L20.2772 2.27706L19.334 1.33386L18.3908 0.39066L0.390782 18.3907L1.33398 19.3339Z" fill="white"/>
</svg>
