<svg width="32" height="34" viewBox="0 0 32 34" fill="none" xmlns="http://www.w3.org/2000/svg">
<path d="M10.7058 30.3803V18.5282C10.7058 18.0043 10.531 17.5019 10.2198 17.1314C9.90862 16.761 9.48657 16.5528 9.04649 16.5528H2.4093C1.96923 16.5528 1.54718 16.761 1.236 17.1314C0.924818 17.5019 0.75 18.0043 0.75 18.5282V30.3803C0.75 30.9042 0.924818 31.4067 1.236 31.7771C1.54718 32.1476 1.96923 32.3557 2.4093 32.3557M10.7058 30.3803C10.7058 30.9042 10.531 31.4067 10.2198 31.7771C9.90862 32.1476 9.48657 32.3557 9.04649 32.3557H2.4093M10.7058 30.3803C10.7058 30.9042 10.8806 31.4067 11.1918 31.7771C11.503 32.1476 11.925 32.3557 12.3651 32.3557H19.0023C19.4424 32.3557 19.8644 32.1476 20.1756 31.7771C20.4868 31.4067 20.6616 30.9042 20.6616 30.3803M10.7058 30.3803V10.6268C10.7058 10.1029 10.8806 9.60044 11.1918 9.22999C11.503 8.85954 11.925 8.65142 12.3651 8.65142H19.0023C19.4424 8.65142 19.8644 8.85954 20.1756 9.22999C20.4868 9.60044 20.6616 10.1029 20.6616 10.6268V30.3803M2.4093 32.3557H25.6395M20.6616 30.3803C20.6616 30.9042 20.8364 31.4067 21.1476 31.7771C21.4588 32.1476 21.8808 32.3557 22.3209 32.3557H28.9581C29.3982 32.3557 29.8202 32.1476 30.1314 31.7771C30.4426 31.4067 30.6174 30.9042 30.6174 30.3803V2.72536C30.6174 2.20146 30.4426 1.69902 30.1314 1.32857C29.8202 0.958118 29.3982 0.75 28.9581 0.75H22.3209C21.8808 0.75 21.4588 0.958118 21.1476 1.32857C20.8364 1.69902 20.6616 2.20146 20.6616 2.72536V30.3803Z" stroke="white" stroke-width="1.5" stroke-linecap="round" stroke-linejoin="round"/>
</svg>
