<svg width="20" height="20" viewBox="0 0 20 20" fill="none" xmlns="http://www.w3.org/2000/svg">
<path d="M10 4.80468e-07C8.88727 -0.000464513 7.80057 0.336594 6.8834 0.966662C5.96624 1.59673 5.26176 2.49017 4.863 3.529C4.44818 3.40947 4.02765 3.31068 3.603 3.233C2.72963 3.07482 1.84357 2.99716 0.956 3.001L0.784 3.005L0.736 3.007C0.548543 3.01449 0.370478 3.09104 0.236078 3.22194C0.101678 3.35283 0.0204399 3.52881 0.0079999 3.716L0.00699997 3.736L0.00500011 3.785C0.00300011 3.825 0.00166659 3.882 0.000999928 3.956C-0.00100007 4.102 6.33299e-08 4.311 0.00900006 4.568C0.0290001 5.082 0.086 5.796 0.233 6.603C0.367 7.338 0.581 8.168 0.923 9H0.75C0.551088 9 0.360322 9.07902 0.21967 9.21967C0.0790175 9.36032 0 9.55109 0 9.75V10C0 15.523 4.477 20 10 20C15.523 20 20 15.523 20 10V9.75C20 9.55109 19.921 9.36032 19.7803 9.21967C19.6397 9.07902 19.4489 9 19.25 9H18.997L18.999 8.875C18.9984 7.79251 18.6379 6.74093 17.9743 5.88574C17.3106 5.03055 16.3815 4.42029 15.333 4.151C15.0327 2.96413 14.345 1.91137 13.3789 1.15948C12.4127 0.407593 11.2233 -0.000445209 9.999 4.80468e-07M6.273 4.04C6.56578 3.29308 7.07634 2.65142 7.73839 2.19833C8.40045 1.74524 9.18343 1.50164 9.98568 1.49916C10.7879 1.49668 11.5724 1.73543 12.2372 2.18442C12.9021 2.63341 13.4166 3.2719 13.714 4.017C12.8541 4.08948 12.0289 4.38866 11.3223 4.88405C10.6158 5.37944 10.0532 6.05333 9.692 6.837C9.42235 6.43743 9.1153 6.06441 8.775 5.723C8.026 4.974 7.155 4.433 6.273 4.04ZM17.5 8.875C17.5 8.917 17.499 8.95867 17.497 9H10.768L10.75 8.95V8.875C10.75 7.9799 11.1056 7.12145 11.7385 6.48852C12.3715 5.85558 13.2299 5.5 14.125 5.5C15.0201 5.5 15.8786 5.85558 16.5115 6.48852C17.1444 7.12145 17.5 7.9799 17.5 8.875ZM7.715 6.784C8.358 7.426 8.824 8.199 9.16 9H7.06L5.28 7.22C5.21134 7.14631 5.12854 7.08721 5.03654 7.04622C4.94454 7.00523 4.84523 6.98319 4.74452 6.98141C4.64382 6.97963 4.54379 6.99816 4.4504 7.03588C4.35701 7.0736 4.27218 7.12974 4.20096 7.20096C4.12974 7.27218 4.0736 7.35701 4.03588 7.4504C3.99816 7.54379 3.97963 7.64382 3.98141 7.74452C3.98319 7.84523 4.00523 7.94454 4.04622 8.03654C4.08721 8.12854 4.14631 8.21134 4.22 8.28L4.94 9H2.57C2.13 8.124 1.866 7.187 1.71 6.333C1.60055 5.73113 1.53371 5.12228 1.51 4.511V4.509C1.97 4.526 2.612 4.577 3.333 4.709C4.793 4.976 6.492 5.559 7.715 6.784ZM2.788 14.5H17.212C16.4482 15.724 15.3853 16.7335 14.1236 17.4333C12.8619 18.133 11.4428 18.5002 10 18.5C8.5572 18.5002 7.13811 18.133 5.87639 17.4333C4.61466 16.7335 3.55183 15.724 2.788 14.5ZM1.514 10.5H18.486C18.4363 11.3553 18.2576 12.1981 17.956 13H2.044C1.74235 12.1981 1.56367 11.3553 1.514 10.5Z" fill="#5C7315"/>
</svg>
