<svg width="17" height="20" viewBox="0 0 17 20" fill="none" xmlns="http://www.w3.org/2000/svg">
<path d="M0.75 5.59615H15.75M0.75 10.4423H15.75M8.25 10.4423V18.75M11.6591 13.9038V15.2885M4.84091 13.9038V15.2885M14.3864 0.75H2.11364C1.75198 0.75 1.40513 0.895879 1.1494 1.15554C0.893668 1.41521 0.75 1.76739 0.75 2.13462V17.3654C0.75 17.7326 0.893668 18.0848 1.1494 18.3445C1.40513 18.6041 1.75198 18.75 2.11364 18.75H14.3864C14.748 18.75 15.0949 18.6041 15.3506 18.3445C15.6063 18.0848 15.75 17.7326 15.75 17.3654V2.13462C15.75 1.76739 15.6063 1.41521 15.3506 1.15554C15.0949 0.895879 14.748 0.75 14.3864 0.75Z" stroke="white" stroke-width="1.5" stroke-linecap="round" stroke-linejoin="round"/>
</svg>
