<svg width="11" height="14" viewBox="0 0 11 14" fill="none" xmlns="http://www.w3.org/2000/svg">
<path d="M0.273267 5.79294C0.0982943 5.61791 0 5.38056 0 5.13307C0 4.88559 0.0982943 4.64823 0.273267 4.47321L4.47327 0.273207C4.64829 0.0982332 4.88565 -6.10352e-05 5.13313 -6.10352e-05C5.38062 -6.10352e-05 5.61797 0.0982332 5.793 0.273207L9.993 4.47321C10.163 4.64923 10.2571 4.885 10.255 5.12971C10.2528 5.37443 10.1547 5.60852 9.98163 5.78157C9.80858 5.95462 9.57449 6.05278 9.32978 6.0549C9.08506 6.05703 8.8493 5.96295 8.67327 5.79294L6.06647 3.26641L6.06647 12.1331C6.06647 12.3806 5.96813 12.618 5.7931 12.793C5.61807 12.9681 5.38067 13.0664 5.13313 13.0664C4.8856 13.0664 4.6482 12.9681 4.47317 12.793C4.29813 12.618 4.1998 12.3806 4.1998 12.1331L4.1998 3.26641L1.593 5.79294C1.41797 5.96791 1.18062 6.06621 0.933134 6.06621C0.685647 6.06621 0.448293 5.96791 0.273267 5.79294Z" fill="black"/>
</svg>
